<svg width="313" height="179" viewBox="0 0 313 179" fill="none" xmlns="http://www.w3.org/2000/svg">
<path d="M263 27H111C105.961 27 101.128 29.0018 97.565 32.565C94.0018 36.1282 92 40.9609 92 46V160C92 165.039 94.0018 169.872 97.565 173.435C101.128 176.998 105.961 179 111 179H263C268.039 179 272.872 176.998 276.435 173.435C279.998 169.872 282 165.039 282 160V46C282 40.9609 279.998 36.1282 276.435 32.565C272.872 29.0018 268.039 27 263 27V27ZM263 71.65L187 122.323L111 71.65V48.8215L187 99.485L263 48.8215V71.65Z" fill="#8399FE"/>
<circle cx="273" cy="40" r="40" fill="#FF3060"/>
<path d="M300.565 37.7375L258.065 17.7375C257.637 17.535 257.16 17.4584 256.691 17.5164C256.221 17.5745 255.777 17.7648 255.411 18.0654C255.046 18.3659 254.773 18.7642 254.625 19.2138C254.477 19.6635 254.459 20.1459 254.575 20.605L259.422 40L254.575 59.395C254.458 59.8542 254.475 60.3372 254.623 60.7874C254.77 61.2376 255.043 61.6364 255.409 61.9372C255.775 62.238 256.22 62.4283 256.69 62.4859C257.16 62.5436 257.637 62.466 258.065 62.2625L300.565 42.2625C300.994 42.0606 301.358 41.7406 301.612 41.34C301.866 40.9393 302.001 40.4746 302.001 40C302.001 39.5254 301.866 39.0606 301.612 38.66C301.358 38.2593 300.994 37.9394 300.565 37.7375V37.7375ZM260.702 55.4925L262.8 47.1L277 40L262.8 32.9L260.702 24.5075L293.627 40L260.702 55.4925Z" fill="#FCFCFC"/>
<rect y="103" width="64" height="12" rx="3" fill="#9145EF"/>
<rect x="24" y="123" width="40" height="12" rx="3" fill="#D9D9D9"/>
</svg>
