<svg width="276" height="46" viewBox="0 0 276 46" fill="none" xmlns="http://www.w3.org/2000/svg">
<path d="M41 11H4.60907C2.85931 11 1.95315 13.0883 3.14839 14.3662L9.69552 21.3662C10.0737 21.7705 10.6026 22 11.1562 22H41C42.1046 22 43 21.1046 43 20V13C43 11.8954 42.1046 11 41 11Z" fill="#6846EC"/>
<path d="M40 27H20.85C19.0651 27 18.1742 29.1605 19.4402 30.4186L26.4843 37.4186C26.859 37.791 27.3658 38 27.8941 38H40C41.1046 38 42 37.1046 42 36V29C42 27.8954 41.1046 27 40 27Z" fill="#F5F5F5"/>
<path d="M64.76 33.24C65.64 33.24 66.36 33.1733 66.92 33.04C67.5067 32.88 67.9733 32.68 68.32 32.44C68.6667 32.1733 68.9067 31.8667 69.04 31.52C69.1733 31.1733 69.24 30.7867 69.24 30.36C69.24 29.4533 68.8133 28.7067 67.96 28.12C67.1067 27.5067 65.64 26.8533 63.56 26.16C62.6533 25.84 61.7467 25.48 60.84 25.08C59.9333 24.6533 59.12 24.1333 58.4 23.52C57.68 22.88 57.0933 22.12 56.64 21.24C56.1867 20.3333 55.96 19.24 55.96 17.96C55.96 16.68 56.2 15.5333 56.68 14.52C57.16 13.48 57.84 12.6 58.72 11.88C59.6 11.16 60.6667 10.6133 61.92 10.24C63.1733 9.84 64.5867 9.64 66.16 9.64C68.0267 9.64 69.64 9.84 71 10.24C72.36 10.64 73.48 11.08 74.36 11.56L72.56 16.48C71.7867 16.08 70.92 15.7333 69.96 15.44C69.0267 15.12 67.8933 14.96 66.56 14.96C65.0667 14.96 63.9867 15.1733 63.32 15.6C62.68 16 62.36 16.6267 62.36 17.48C62.36 17.9867 62.48 18.4133 62.72 18.76C62.96 19.1067 63.2933 19.4267 63.72 19.72C64.1733 19.9867 64.68 20.24 65.24 20.48C65.8267 20.6933 66.4667 20.92 67.16 21.16C68.6 21.6933 69.8533 22.2267 70.92 22.76C71.9867 23.2667 72.8667 23.8667 73.56 24.56C74.28 25.2533 74.8133 26.0667 75.16 27C75.5067 27.9333 75.68 29.0667 75.68 30.4C75.68 32.9867 74.7733 35 72.96 36.44C71.1467 37.8533 68.4133 38.56 64.76 38.56C63.5333 38.56 62.4267 38.48 61.44 38.32C60.4533 38.1867 59.5733 38.0133 58.8 37.8C58.0533 37.5867 57.4 37.36 56.84 37.12C56.3067 36.88 55.8533 36.6533 55.48 36.44L57.24 31.48C58.0667 31.9333 59.08 32.3467 60.28 32.72C61.5067 33.0667 63 33.24 64.76 33.24ZM98.0413 37.28C97.0279 37.5733 95.7213 37.84 94.1213 38.08C92.5213 38.3467 90.8413 38.48 89.0813 38.48C87.2946 38.48 85.8013 38.24 84.6013 37.76C83.4279 37.28 82.4946 36.6133 81.8013 35.76C81.1079 34.88 80.6146 33.84 80.3213 32.64C80.0279 31.44 79.8813 30.12 79.8813 28.68V16.96H85.8413V27.96C85.8413 29.88 86.0946 31.2667 86.6013 32.12C87.1079 32.9733 88.0546 33.4 89.4413 33.4C89.8679 33.4 90.3213 33.3867 90.8013 33.36C91.2813 33.3067 91.7079 33.2533 92.0813 33.2V16.96H98.0413V37.28ZM117.116 27.64C117.116 25.8 116.703 24.3333 115.876 23.24C115.049 22.12 113.823 21.56 112.196 21.56C111.663 21.56 111.169 21.5867 110.716 21.64C110.263 21.6667 109.889 21.7067 109.596 21.76V32.52C109.969 32.76 110.449 32.96 111.036 33.12C111.649 33.28 112.263 33.36 112.876 33.36C115.703 33.36 117.116 31.4533 117.116 27.64ZM123.196 27.48C123.196 29.1067 122.996 30.5867 122.596 31.92C122.196 33.2533 121.609 34.4 120.836 35.36C120.063 36.32 119.103 37.0667 117.956 37.6C116.809 38.1333 115.489 38.4 113.996 38.4C113.169 38.4 112.396 38.32 111.676 38.16C110.956 38 110.263 37.7733 109.596 37.48V45.4H103.636V17.68C104.169 17.52 104.783 17.3733 105.476 17.24C106.169 17.08 106.889 16.9467 107.636 16.84C108.409 16.7333 109.183 16.6533 109.956 16.6C110.756 16.52 111.516 16.48 112.236 16.48C113.969 16.48 115.516 16.7467 116.876 17.28C118.236 17.7867 119.383 18.52 120.316 19.48C121.249 20.4133 121.956 21.56 122.436 22.92C122.943 24.28 123.196 25.8 123.196 27.48ZM126.777 27.64C126.777 25.7733 127.057 24.1467 127.617 22.76C128.203 21.3467 128.963 20.1733 129.897 19.24C130.83 18.3067 131.897 17.6 133.097 17.12C134.323 16.64 135.577 16.4 136.857 16.4C139.843 16.4 142.203 17.32 143.937 19.16C145.67 20.9733 146.537 23.6533 146.537 27.2C146.537 27.5467 146.523 27.9333 146.497 28.36C146.47 28.76 146.443 29.12 146.417 29.44H132.897C133.03 30.6667 133.603 31.64 134.617 32.36C135.63 33.08 136.99 33.44 138.697 33.44C139.79 33.44 140.857 33.3467 141.897 33.16C142.963 32.9467 143.83 32.6933 144.497 32.4L145.297 37.24C144.977 37.4 144.55 37.56 144.017 37.72C143.483 37.88 142.883 38.0133 142.217 38.12C141.577 38.2533 140.883 38.36 140.137 38.44C139.39 38.52 138.643 38.56 137.897 38.56C136.003 38.56 134.35 38.28 132.937 37.72C131.55 37.16 130.39 36.4 129.457 35.44C128.55 34.4533 127.87 33.2933 127.417 31.96C126.99 30.6267 126.777 29.1867 126.777 27.64ZM140.777 25.36C140.75 24.8533 140.657 24.36 140.497 23.88C140.363 23.4 140.137 22.9733 139.817 22.6C139.523 22.2267 139.137 21.92 138.657 21.68C138.203 21.44 137.63 21.32 136.937 21.32C136.27 21.32 135.697 21.44 135.217 21.68C134.737 21.8933 134.337 22.1867 134.017 22.56C133.697 22.9333 133.443 23.3733 133.257 23.88C133.097 24.36 132.977 24.8533 132.897 25.36H140.777ZM163.816 22.24C163.283 22.1067 162.656 21.9733 161.936 21.84C161.216 21.68 160.443 21.6 159.616 21.6C159.243 21.6 158.789 21.64 158.256 21.72C157.749 21.7733 157.363 21.84 157.096 21.92V38H151.136V18.08C152.203 17.7067 153.456 17.36 154.896 17.04C156.363 16.6933 157.989 16.52 159.776 16.52C160.096 16.52 160.483 16.5467 160.936 16.6C161.389 16.6267 161.843 16.68 162.296 16.76C162.749 16.8133 163.203 16.8933 163.656 17C164.109 17.08 164.496 17.1867 164.816 17.32L163.816 22.24Z" fill="white"/>
<path d="M194.74 10.28H200.98V38H194.74V26.24H184.26V38H178.02V10.28H184.26V20.88H194.74V10.28ZM205.995 27.64C205.995 25.7733 206.275 24.1467 206.835 22.76C207.422 21.3467 208.182 20.1733 209.115 19.24C210.049 18.3067 211.115 17.6 212.315 17.12C213.542 16.64 214.795 16.4 216.075 16.4C219.062 16.4 221.422 17.32 223.155 19.16C224.889 20.9733 225.755 23.6533 225.755 27.2C225.755 27.5467 225.742 27.9333 225.715 28.36C225.689 28.76 225.662 29.12 225.635 29.44H212.115C212.249 30.6667 212.822 31.64 213.835 32.36C214.849 33.08 216.209 33.44 217.915 33.44C219.009 33.44 220.075 33.3467 221.115 33.16C222.182 32.9467 223.049 32.6933 223.715 32.4L224.515 37.24C224.195 37.4 223.769 37.56 223.235 37.72C222.702 37.88 222.102 38.0133 221.435 38.12C220.795 38.2533 220.102 38.36 219.355 38.44C218.609 38.52 217.862 38.56 217.115 38.56C215.222 38.56 213.569 38.28 212.155 37.72C210.769 37.16 209.609 36.4 208.675 35.44C207.769 34.4533 207.089 33.2933 206.635 31.96C206.209 30.6267 205.995 29.1867 205.995 27.64ZM219.995 25.36C219.969 24.8533 219.875 24.36 219.715 23.88C219.582 23.4 219.355 22.9733 219.035 22.6C218.742 22.2267 218.355 21.92 217.875 21.68C217.422 21.44 216.849 21.32 216.155 21.32C215.489 21.32 214.915 21.44 214.435 21.68C213.955 21.8933 213.555 22.1867 213.235 22.56C212.915 22.9333 212.662 23.3733 212.475 23.88C212.315 24.36 212.195 24.8533 212.115 25.36H219.995ZM243.035 22.24C242.501 22.1067 241.875 21.9733 241.155 21.84C240.435 21.68 239.661 21.6 238.835 21.6C238.461 21.6 238.008 21.64 237.475 21.72C236.968 21.7733 236.581 21.84 236.315 21.92V38H230.355V18.08C231.421 17.7067 232.675 17.36 234.115 17.04C235.581 16.6933 237.208 16.52 238.995 16.52C239.315 16.52 239.701 16.5467 240.155 16.6C240.608 16.6267 241.061 16.68 241.515 16.76C241.968 16.8133 242.421 16.8933 242.875 17C243.328 17.08 243.715 17.1867 244.035 17.32L243.035 22.24ZM266.519 27.44C266.519 29.0933 266.279 30.6133 265.799 32C265.319 33.36 264.626 34.5333 263.719 35.52C262.812 36.48 261.719 37.2267 260.439 37.76C259.186 38.2933 257.772 38.56 256.199 38.56C254.652 38.56 253.239 38.2933 251.959 37.76C250.706 37.2267 249.626 36.48 248.719 35.52C247.812 34.5333 247.106 33.36 246.599 32C246.092 30.6133 245.839 29.0933 245.839 27.44C245.839 25.7867 246.092 24.28 246.599 22.92C247.132 21.56 247.852 20.4 248.759 19.44C249.692 18.48 250.786 17.7333 252.039 17.2C253.319 16.6667 254.706 16.4 256.199 16.4C257.719 16.4 259.106 16.6667 260.359 17.2C261.639 17.7333 262.732 18.48 263.639 19.44C264.546 20.4 265.252 21.56 265.759 22.92C266.266 24.28 266.519 25.7867 266.519 27.44ZM260.439 27.44C260.439 25.6 260.066 24.16 259.319 23.12C258.599 22.0533 257.559 21.52 256.199 21.52C254.839 21.52 253.786 22.0533 253.039 23.12C252.292 24.16 251.919 25.6 251.919 27.44C251.919 29.28 252.292 30.7467 253.039 31.84C253.786 32.9067 254.839 33.44 256.199 33.44C257.559 33.44 258.599 32.9067 259.319 31.84C260.066 30.7467 260.439 29.28 260.439 27.44Z" fill="#6846EC"/>
</svg>
